<svg width="260" height="302" viewBox="0 0 260 302" fill="none" xmlns="http://www.w3.org/2000/svg">
<path d="M59.2004 118.855C59.0881 120.319 57.978 121.895 55.5853 123.111C53.2297 124.308 49.9235 124.971 46.2428 124.689C42.5622 124.406 39.396 123.246 37.2506 121.703C35.0715 120.137 34.215 118.409 34.3273 116.946C34.4397 115.482 35.5498 113.906 37.9425 112.69C40.2981 111.493 43.6043 110.83 47.2849 111.112C50.9656 111.395 54.1318 112.555 56.2771 114.098C58.4563 115.664 59.3128 117.392 59.2004 118.855Z" stroke="#E3BBF7" stroke-width="4"/>
<path d="M59.8033 118.222L64.937 51.3412" stroke="#E3BBF7" stroke-width="4"/>
<g filter="url(#filter0_f)">
<path d="M59.2004 118.855C59.0881 120.319 57.978 121.895 55.5853 123.111C53.2297 124.308 49.9235 124.971 46.2428 124.689C42.5622 124.406 39.396 123.246 37.2506 121.703C35.0715 120.137 34.215 118.409 34.3273 116.946C34.4397 115.482 35.5498 113.906 37.9425 112.69C40.2981 111.493 43.6043 110.83 47.2849 111.112C50.9656 111.395 54.1318 112.555 56.2771 114.098C58.4563 115.664 59.3128 117.392 59.2004 118.855Z" stroke="#E3BBF7" stroke-width="4"/>
<path d="M59.8033 118.222L64.937 51.3412" stroke="#E3BBF7" stroke-width="4"/>
</g>
<ellipse cx="141.392" cy="71.0518" rx="12.1639" ry="8.06495" transform="rotate(-42.1836 141.392 71.0518)" fill="#7F90F6"/>
<path d="M149.088 63.2408L107.845 17.7304" stroke="#7F90F6" stroke-width="2"/>
<g filter="url(#filter1_f)">
<ellipse cx="141.392" cy="71.0518" rx="12.1639" ry="8.06495" transform="rotate(-42.1836 141.392 71.0518)" fill="#7F90F6"/>
<path d="M149.088 63.2408L107.845 17.7304" stroke="#7F90F6" stroke-width="4"/>
</g>
<g filter="url(#filter2_d)">
<ellipse cx="201.67" cy="121.373" rx="7.95407" ry="6.2067" transform="rotate(10.7312 201.67 121.373)" fill="#7F90F6"/>
<path d="M208.636 122.207L217.437 75.7674" stroke="#7F90F6" stroke-width="2"/>
<ellipse cx="174.511" cy="116.335" rx="7.95407" ry="6.2067" transform="rotate(10.7312 174.511 116.335)" fill="#7F90F6"/>
<path d="M181.477 117.17L189.079 77.1702" stroke="#7F90F6" stroke-width="2"/>
<path d="M188.044 73.2537L219.024 74.8665L217.729 79.7211L187.68 77.733L188.044 73.2537Z" fill="#7F90F6"/>
<path d="M187.005 81.7963L215.958 83.3967L214.01 86.0924L187.234 84.6989L187.005 81.7963Z" fill="#7F90F6"/>
</g>
<g filter="url(#filter3_f)">
<ellipse cx="201.67" cy="121.373" rx="7.95407" ry="6.2067" transform="rotate(10.7312 201.67 121.373)" fill="#7F90F6"/>
<path d="M208.636 122.207L217.437 75.7674" stroke="#7F90F6" stroke-width="2"/>
<ellipse cx="174.511" cy="116.335" rx="7.95407" ry="6.2067" transform="rotate(10.7312 174.511 116.335)" fill="#7F90F6"/>
<path d="M181.477 117.17L189.079 77.1702" stroke="#7F90F6" stroke-width="2"/>
<path d="M188.044 73.2537L219.024 74.8665L217.729 79.7211L187.68 77.733L188.044 73.2537Z" fill="#7F90F6"/>
<path d="M187.005 81.7963L215.958 83.3967L214.01 86.0924L187.234 84.6989L187.005 81.7963Z" fill="#7F90F6"/>
</g>
<g filter="url(#filter4_d)">
<ellipse cx="78.6669" cy="209.404" rx="7.72002" ry="6.02407" transform="rotate(-13.1135 78.6669 209.404)" fill="#74B7F1"/>
<path d="M85.1781 207.412L74.7698 162.733" stroke="#74B7F1" stroke-width="2"/>
<ellipse cx="52.5805" cy="215.589" rx="7.72002" ry="6.02407" transform="rotate(-13.1135 52.5805 215.589)" fill="#74B7F1"/>
<path d="M59.0914 213.596L50.1457 175.105" stroke="#74B7F1" stroke-width="2"/>
<path d="M47.6903 172.034L75.8253 161.31L76.5797 166.128L49.1251 176.153L47.6903 172.034Z" fill="#74B7F1"/>
<path d="M50.1199 180.025L76.4505 170.086L75.7788 173.243L51.4625 182.512L50.1199 180.025Z" fill="#74B7F1"/>
</g>
<g filter="url(#filter5_f)">
<ellipse cx="78.6669" cy="209.404" rx="7.72002" ry="6.02407" transform="rotate(-13.1135 78.6669 209.404)" fill="#74B7F1"/>
<path d="M85.1781 207.412L74.7698 162.733" stroke="#74B7F1" stroke-width="2"/>
<ellipse cx="52.5805" cy="215.589" rx="7.72002" ry="6.02407" transform="rotate(-13.1135 52.5805 215.589)" fill="#74B7F1"/>
<path d="M59.0914 213.596L50.1457 175.105" stroke="#74B7F1" stroke-width="2"/>
<path d="M47.6903 172.034L75.8253 161.31L76.5797 166.128L49.1251 176.153L47.6903 172.034Z" fill="#74B7F1"/>
<path d="M50.1199 180.025L76.4505 170.086L75.7788 173.243L51.4625 182.512L50.1199 180.025Z" fill="#74B7F1"/>
</g>
<path d="M107.714 151.677C107.58 152.01 107.172 152.372 106.316 152.515C105.479 152.654 104.378 152.54 103.238 152.082C102.098 151.624 101.224 150.944 100.717 150.265C100.197 149.57 100.153 149.026 100.287 148.694C100.42 148.361 100.828 147.998 101.685 147.856C102.521 147.717 103.622 147.831 104.762 148.289C105.902 148.747 106.776 149.427 107.284 150.105C107.804 150.801 107.847 151.345 107.714 151.677Z" stroke="#E3BBF7" stroke-width="2"/>
<path d="M108.265 151.646L116.907 130.136" stroke="#E3BBF7" stroke-width="2"/>
<g filter="url(#filter6_f)">
<path d="M107.714 151.677C107.58 152.01 107.172 152.372 106.316 152.515C105.479 152.654 104.378 152.54 103.238 152.082C102.098 151.624 101.224 150.944 100.717 150.265C100.197 149.57 100.153 149.026 100.287 148.694C100.42 148.361 100.828 147.998 101.685 147.856C102.521 147.717 103.622 147.831 104.762 148.289C105.902 148.747 106.776 149.427 107.284 150.105C107.804 150.801 107.847 151.345 107.714 151.677Z" stroke="#E3BBF7" stroke-width="2"/>
<path d="M108.265 151.646L116.907 130.136" stroke="#E3BBF7" stroke-width="2"/>
</g>
<defs>
<filter id="filter0_f" x="27.6592" y="47.1882" width="43.2719" height="84.6023" filterUnits="userSpaceOnUse" color-interpolation-filters="sRGB">
<feFlood flood-opacity="0" result="BackgroundImageFix"/>
<feBlend mode="normal" in="SourceGraphic" in2="BackgroundImageFix" result="shape"/>
<feGaussianBlur stdDeviation="2" result="effect1_foregroundBlur"/>
</filter>
<filter id="filter1_f" x="102.363" y="12.3874" width="57.4578" height="76.8086" filterUnits="userSpaceOnUse" color-interpolation-filters="sRGB">
<feFlood flood-opacity="0" result="BackgroundImageFix"/>
<feBlend mode="normal" in="SourceGraphic" in2="BackgroundImageFix" result="shape"/>
<feGaussianBlur stdDeviation="2" result="effect1_foregroundBlur"/>
</filter>
<filter id="filter2_d" x="161.541" y="62.7475" width="62.9847" height="74.2046" filterUnits="userSpaceOnUse" color-interpolation-filters="sRGB">
<feFlood flood-opacity="0" result="BackgroundImageFix"/>
<feColorMatrix in="SourceAlpha" type="matrix" values="0 0 0 0 0 0 0 0 0 0 0 0 0 0 0 0 0 0 127 0"/>
<feOffset dy="4"/>
<feGaussianBlur stdDeviation="2"/>
<feColorMatrix type="matrix" values="0 0 0 0 0 0 0 0 0 0 0 0 0 0 0 0 0 0 0.25 0"/>
<feBlend mode="normal" in2="BackgroundImageFix" result="effect1_dropShadow"/>
<feBlend mode="normal" in="SourceGraphic" in2="effect1_dropShadow" result="shape"/>
</filter>
<filter id="filter3_f" x="161.541" y="58.7475" width="62.9847" height="74.2046" filterUnits="userSpaceOnUse" color-interpolation-filters="sRGB">
<feFlood flood-opacity="0" result="BackgroundImageFix"/>
<feBlend mode="normal" in="SourceGraphic" in2="BackgroundImageFix" result="shape"/>
<feGaussianBlur stdDeviation="2" result="effect1_foregroundBlur"/>
</filter>
<filter id="filter4_d" x="39.6951" y="152.466" width="51.8573" height="78.7415" filterUnits="userSpaceOnUse" color-interpolation-filters="sRGB">
<feFlood flood-opacity="0" result="BackgroundImageFix"/>
<feColorMatrix in="SourceAlpha" type="matrix" values="0 0 0 0 0 0 0 0 0 0 0 0 0 0 0 0 0 0 127 0"/>
<feOffset dy="4"/>
<feGaussianBlur stdDeviation="2"/>
<feColorMatrix type="matrix" values="0 0 0 0 0 0 0 0 0 0 0 0 0 0 0 0 0 0 0.25 0"/>
<feBlend mode="normal" in2="BackgroundImageFix" result="effect1_dropShadow"/>
<feBlend mode="normal" in="SourceGraphic" in2="effect1_dropShadow" result="shape"/>
</filter>
<filter id="filter5_f" x="39.6951" y="148.466" width="51.8573" height="78.7415" filterUnits="userSpaceOnUse" color-interpolation-filters="sRGB">
<feFlood flood-opacity="0" result="BackgroundImageFix"/>
<feBlend mode="normal" in="SourceGraphic" in2="BackgroundImageFix" result="shape"/>
<feGaussianBlur stdDeviation="2" result="effect1_foregroundBlur"/>
</filter>
<filter id="filter6_f" x="94.2241" y="125.763" width="27.6107" height="33.1119" filterUnits="userSpaceOnUse" color-interpolation-filters="sRGB">
<feFlood flood-opacity="0" result="BackgroundImageFix"/>
<feBlend mode="normal" in="SourceGraphic" in2="BackgroundImageFix" result="shape"/>
<feGaussianBlur stdDeviation="2" result="effect1_foregroundBlur"/>
</filter>
</defs>
</svg>
