<svg width="232" height="255" viewBox="0 0 232 255" fill="none" xmlns="http://www.w3.org/2000/svg">
<g filter="url(#filter0_d)">
<ellipse cx="128.675" cy="120.389" rx="11.9939" ry="9.35907" transform="rotate(43.5887 128.675 120.389)" fill="#74B7F1"/>
<path d="M136.816 127.144L185.957 75.5208" stroke="#74B7F1" stroke-width="2"/>
<ellipse cx="98.3951" cy="91.7888" rx="11.9939" ry="9.35907" transform="rotate(43.5887 98.3951 91.7888)" fill="#74B7F1"/>
<path d="M106.536 98.5441L148.889 54.0975" stroke="#74B7F1" stroke-width="2"/>
<path d="M150.782 48.2901L188.704 75.6783L183.091 80.7673L146.657 53.6665L150.782 48.2901Z" fill="#74B7F1"/>
<path d="M142.477 58.2607L177.842 83.9747L173.169 85.7956L140.393 62.1249L142.477 58.2607Z" fill="#74B7F1"/>
</g>
<g filter="url(#filter1_f)">
<ellipse cx="128.675" cy="120.389" rx="11.9939" ry="9.35907" transform="rotate(43.5887 128.675 120.389)" fill="#74B7F1"/>
<path d="M136.816 127.144L185.957 75.5208" stroke="#74B7F1" stroke-width="4"/>
<ellipse cx="98.3951" cy="91.7888" rx="11.9939" ry="9.35907" transform="rotate(43.5887 98.3951 91.7888)" fill="#74B7F1"/>
<path d="M106.536 98.5441L148.889 54.0975" stroke="#74B7F1" stroke-width="4"/>
<path d="M150.782 48.2901L188.704 75.6783L183.091 80.7673L146.657 53.6665L150.782 48.2901Z" fill="#74B7F1"/>
<path d="M142.477 58.2607L177.842 83.9747L173.169 85.7956L140.393 62.1249L142.477 58.2607Z" fill="#74B7F1"/>
</g>
<path d="M50.4592 78.777C50.7525 79.8079 50.3925 81.1748 49.0499 82.6249C47.7284 84.0522 45.6131 85.3549 42.9961 86.0994C40.3791 86.8439 37.8948 86.8496 36.02 86.3317C34.1151 85.8054 33.0895 84.8327 32.7963 83.8018C32.503 82.7709 32.863 81.404 34.2056 79.9539C35.5271 78.5266 37.6424 77.2239 40.2594 76.4794C42.8764 75.7349 45.3607 75.7292 47.2355 76.2471C49.1404 76.7734 50.166 77.7461 50.4592 78.777Z" stroke="#E3BBF7" stroke-width="3"/>
<path d="M50.7376 78.1779L37.1914 30.5607" stroke="#E3BBF7" stroke-width="3"/>
<g filter="url(#filter2_f)">
<path d="M50.4592 78.777C50.7525 79.8079 50.3925 81.1748 49.0499 82.6249C47.7284 84.0522 45.6131 85.3549 42.9961 86.0994C40.3791 86.8439 37.8948 86.8496 36.02 86.3317C34.1151 85.8054 33.0895 84.8327 32.7963 83.8018C32.503 82.7709 32.863 81.404 34.2056 79.9539C35.5271 78.5266 37.6424 77.2239 40.2594 76.4794C42.8764 75.7349 45.3607 75.7292 47.2355 76.2471C49.1404 76.7734 50.166 77.7461 50.4592 78.777Z" stroke="#E3BBF7" stroke-width="3"/>
<path d="M50.7376 78.1779L37.1914 30.5607" stroke="#E3BBF7" stroke-width="3"/>
</g>
<path d="M154.475 171.197C153.817 172.205 152.458 172.814 150.525 172.753C148.614 172.693 146.316 171.967 144.125 170.537C141.934 169.107 140.344 167.296 139.519 165.571C138.685 163.826 138.696 162.337 139.353 161.329C140.011 160.322 141.37 159.712 143.302 159.773C145.214 159.833 147.511 160.56 149.703 161.99C151.894 163.42 153.484 165.23 154.308 166.956C155.142 168.7 155.132 170.19 154.475 171.197Z" stroke="#E3BBF7" stroke-width="2"/>
<path d="M154.729 170.803L180.129 131.88" stroke="#E3BBF7" stroke-width="2"/>
<g filter="url(#filter3_f)">
<path d="M154.475 171.197C153.817 172.205 152.458 172.814 150.525 172.753C148.614 172.693 146.316 171.967 144.125 170.537C141.934 169.107 140.344 167.296 139.519 165.571C138.685 163.826 138.696 162.337 139.353 161.329C140.011 160.322 141.37 159.712 143.302 159.773C145.214 159.833 147.511 160.56 149.703 161.99C151.894 163.42 153.484 165.23 154.308 166.956C155.142 168.7 155.132 170.19 154.475 171.197Z" stroke="#E3BBF7" stroke-width="2"/>
<path d="M154.729 170.803L180.129 131.88" stroke="#E3BBF7" stroke-width="2"/>
</g>
<ellipse cx="185.139" cy="200.125" rx="8.4282" ry="5.5881" transform="rotate(-7.44626 185.139 200.125)" fill="#7F90F6"/>
<path d="M192.605 198.715L187.09 156.519" stroke="#7F90F6" stroke-width="2"/>
<g filter="url(#filter4_f)">
<ellipse cx="185.139" cy="200.125" rx="8.4282" ry="5.5881" transform="rotate(-7.44626 185.139 200.125)" fill="#7F90F6"/>
<path d="M192.605 198.715L187.09 156.519" stroke="#7F90F6" stroke-width="2"/>
</g>
<defs>
<filter id="filter0_d" x="79.2549" y="47.7153" width="117.186" height="95.7219" filterUnits="userSpaceOnUse" color-interpolation-filters="sRGB">
<feFlood flood-opacity="0" result="BackgroundImageFix"/>
<feColorMatrix in="SourceAlpha" type="matrix" values="0 0 0 0 0 0 0 0 0 0 0 0 0 0 0 0 0 0 127 0"/>
<feOffset dy="4"/>
<feGaussianBlur stdDeviation="2"/>
<feColorMatrix type="matrix" values="0 0 0 0 0 0 0 0 0 0 0 0 0 0 0 0 0 0 0.25 0"/>
<feBlend mode="normal" in2="BackgroundImageFix" result="effect1_dropShadow"/>
<feBlend mode="normal" in="SourceGraphic" in2="effect1_dropShadow" result="shape"/>
</filter>
<filter id="filter1_f" x="79.2549" y="43.7153" width="117.186" height="95.7219" filterUnits="userSpaceOnUse" color-interpolation-filters="sRGB">
<feFlood flood-opacity="0" result="BackgroundImageFix"/>
<feBlend mode="normal" in="SourceGraphic" in2="BackgroundImageFix" result="shape"/>
<feGaussianBlur stdDeviation="2" result="effect1_foregroundBlur"/>
</filter>
<filter id="filter2_f" x="25.5747" y="26.1503" width="32.1061" height="68.3147" filterUnits="userSpaceOnUse" color-interpolation-filters="sRGB">
<feFlood flood-opacity="0" result="BackgroundImageFix"/>
<feBlend mode="normal" in="SourceGraphic" in2="BackgroundImageFix" result="shape"/>
<feGaussianBlur stdDeviation="2" result="effect1_foregroundBlur"/>
</filter>
<filter id="filter3_f" x="131.18" y="127.334" width="53.7866" height="53.5209" filterUnits="userSpaceOnUse" color-interpolation-filters="sRGB">
<feFlood flood-opacity="0" result="BackgroundImageFix"/>
<feBlend mode="normal" in="SourceGraphic" in2="BackgroundImageFix" result="shape"/>
<feGaussianBlur stdDeviation="2" result="effect1_foregroundBlur"/>
</filter>
<filter id="filter4_f" x="172.75" y="152.389" width="24.8458" height="57.3841" filterUnits="userSpaceOnUse" color-interpolation-filters="sRGB">
<feFlood flood-opacity="0" result="BackgroundImageFix"/>
<feBlend mode="normal" in="SourceGraphic" in2="BackgroundImageFix" result="shape"/>
<feGaussianBlur stdDeviation="2" result="effect1_foregroundBlur"/>
</filter>
</defs>
</svg>
