<svg width="260" height="260" viewBox="0 0 260 260" fill="none" xmlns="http://www.w3.org/2000/svg">
<g filter="url(#filter0_d)">
<rect x="10" y="6" width="240" height="240" fill="#5FE2FF"/>
</g>
<mask id="mask0" mask-type="alpha" maskUnits="userSpaceOnUse" x="10" y="6" width="240" height="240">
<rect x="10" y="6" width="240" height="240" rx="27" fill="#5FE2FF"/>
</mask>
<g mask="url(#mask0)">
<path d="M-11.2496 59.9736C21.6181 13.5873 123.579 0.0400156 187.726 32.176C266.43 71.6053 257.915 172.118 202.775 227.344C106.356 323.916 19.5836 273.993 -27.5327 226.554C-74.649 179.115 -44.1174 106.36 -11.2496 59.9736Z" fill="#84C8F7"/>
<path d="M51.668 127.934C13.6828 94.9752 -1.69702 20.5173 31.9617 -10.422C54.9601 -31.5622 105.768 -34.1781 156.699 2.0068C227.29 52.1589 211.969 79.2063 154.123 125.055C121.671 150.776 77.769 150.582 51.668 127.934Z" fill="#F4A916"/>
<path d="M74.3635 168C58.5772 136.808 42.3308 75.1381 68.9091 39.2726C101.519 -4.7325 190.89 -8.34436 226.545 28.9089C272.265 76.6773 275.34 172.881 207.454 197.454C163.051 213.528 90.842 200.559 74.3635 168Z" fill="#E49C22"/>
<path d="M63.5014 48.9936C94.3124 -4.49583 146.094 5.60608 172.562 7.46971C205.678 25.5716 214.283 89.7468 193.273 119.455C164.548 160.07 86.9091 156.545 60.6852 133.16C57.7898 120.64 44.9911 81.1284 63.5014 48.9936Z" fill="#EFE530"/>
<path d="M225.603 146.134C225.321 146.635 224.648 147.041 223.507 147.08C222.387 147.118 220.987 146.781 219.607 146.003C218.226 145.226 217.211 144.204 216.663 143.227C216.105 142.232 216.103 141.446 216.385 140.945C216.667 140.444 217.34 140.038 218.48 139.999C219.6 139.961 221.001 140.299 222.381 141.076C223.761 141.853 224.776 142.875 225.324 143.852C225.883 144.848 225.884 145.634 225.603 146.134Z" stroke="#FCDBEE" stroke-width="2"/>
<path d="M226.07 146.06L240.369 120.662" stroke="#FCDBEE" stroke-width="2"/>
<g filter="url(#filter1_f)">
<path d="M225.603 146.134C225.321 146.635 224.648 147.041 223.507 147.08C222.387 147.118 220.987 146.781 219.607 146.003C218.226 145.226 217.211 144.204 216.663 143.227C216.105 142.232 216.103 141.446 216.385 140.945C216.667 140.444 217.34 140.038 218.48 139.999C219.6 139.961 221.001 140.299 222.381 141.076C223.761 141.853 224.776 142.875 225.324 143.852C225.883 144.848 225.884 145.634 225.603 146.134Z" stroke="#FCDBEE" stroke-width="2"/>
<path d="M226.07 146.06L240.369 120.662" stroke="#FCDBEE" stroke-width="2"/>
</g>
<path d="M232.522 56.0683C232.496 56.4249 232.219 56.8938 231.448 57.2905C230.695 57.6776 229.613 57.9054 228.389 57.8175C227.165 57.7295 226.127 57.3493 225.437 56.8585C224.73 56.3556 224.524 55.8519 224.549 55.4954C224.575 55.1388 224.852 54.6699 225.623 54.2733C226.376 53.8861 227.458 53.6583 228.682 53.7463C229.906 53.8342 230.944 54.2144 231.634 54.7052C232.341 55.2081 232.547 55.7118 232.522 56.0683Z" stroke="#FCDBEE" stroke-width="2"/>
<path d="M233.038 55.871L234.698 32.7734" stroke="#FCDBEE" stroke-width="2"/>
<g filter="url(#filter2_f)">
<path d="M232.522 56.0683C232.496 56.4249 232.219 56.8938 231.448 57.2905C230.695 57.6776 229.613 57.9054 228.389 57.8175C227.165 57.7295 226.127 57.3493 225.437 56.8585C224.73 56.3556 224.524 55.8519 224.549 55.4954C224.575 55.1388 224.852 54.6699 225.623 54.2733C226.376 53.8861 227.458 53.6583 228.682 53.7463C229.906 53.8342 230.944 54.2144 231.634 54.7052C232.341 55.2081 232.547 55.7118 232.522 56.0683Z" stroke="#FCDBEE" stroke-width="2"/>
<path d="M233.038 55.871L234.698 32.7734" stroke="#FCDBEE" stroke-width="2"/>
</g>
<ellipse cx="219.054" cy="100.863" rx="5.28545" ry="3.50438" transform="rotate(-19.3128 219.054 100.863)" fill="#FCDBEE"/>
<path d="M223.454 99.0349L214.628 73.8494" stroke="#FCDBEE" stroke-width="2"/>
<g filter="url(#filter3_f)">
<ellipse cx="219.054" cy="100.863" rx="5.28545" ry="3.50438" transform="rotate(-19.3128 219.054 100.863)" fill="#FCDBEE"/>
<path d="M223.454 99.0349L214.628 73.8494" stroke="#FCDBEE" stroke-width="2"/>
</g>
<ellipse cx="25.9717" cy="86.2666" rx="3.30486" ry="2.1912" transform="rotate(45.5017 25.9717 86.2666)" fill="#FCDBEE"/>
<path d="M28.1766 88.2701L40.0789 76.5745" stroke="#FCDBEE" stroke-width="2"/>
<g filter="url(#filter4_f)">
<ellipse cx="25.9717" cy="86.2666" rx="3.30486" ry="2.1912" transform="rotate(45.5017 25.9717 86.2666)" fill="#FCDBEE"/>
<path d="M28.1766 88.2701L40.0789 76.5745" stroke="#FCDBEE" stroke-width="2"/>
</g>
<path d="M34.7285 123.008C34.5154 123.57 33.8857 124.089 32.7305 124.305C31.5958 124.517 30.1191 124.39 28.5962 123.813C27.0733 123.237 25.8826 122.354 25.1728 121.444C24.4503 120.517 24.3225 119.711 24.5355 119.148C24.7486 118.585 25.3783 118.066 26.5335 117.85C27.6682 117.638 29.1449 117.766 30.6678 118.342C32.1907 118.919 33.3814 119.801 34.0912 120.712C34.8137 121.639 34.9415 122.445 34.7285 123.008Z" stroke="#FCDBEE" stroke-width="2"/>
<path d="M35.1675 122.851L45.7522 94.8964" stroke="#FCDBEE" stroke-width="2"/>
<g filter="url(#filter5_f)">
<path d="M34.7285 123.008C34.5154 123.57 33.8857 124.089 32.7305 124.305C31.5958 124.517 30.1191 124.39 28.5962 123.813C27.0733 123.237 25.8826 122.354 25.1728 121.444C24.4503 120.517 24.3225 119.711 24.5355 119.148C24.7486 118.585 25.3783 118.066 26.5335 117.85C27.6682 117.638 29.1449 117.766 30.6678 118.342C32.1907 118.919 33.3814 119.801 34.0912 120.712C34.8137 121.639 34.9415 122.445 34.7285 123.008Z" stroke="#FCDBEE" stroke-width="2"/>
<path d="M35.1675 122.851L45.7522 94.8964" stroke="#FCDBEE" stroke-width="2"/>
</g>
<ellipse cx="64.1124" cy="150.055" rx="4.94319" ry="3.85726" transform="rotate(13.9498 64.1124 150.055)" fill="#FEFFFF"/>
<path d="M68.4055 150.816L75.4868 122.308" stroke="#FEFFFF" stroke-width="2"/>
<ellipse cx="47.4364" cy="145.982" rx="4.94319" ry="3.85726" transform="rotate(13.9498 47.4364 145.982)" fill="#FEFFFF"/>
<path d="M51.7295 146.743L57.8421 122.189" stroke="#FEFFFF" stroke-width="2"/>
<path d="M57.3364 119.723L76.5029 121.804L75.5295 124.771L56.9545 122.489L57.3364 119.723Z" fill="#FEFFFF"/>
<path d="M56.3939 124.987L74.3032 126.99L73.0003 128.595L56.435 126.796L56.3939 124.987Z" fill="#FEFFFF"/>
<g filter="url(#filter6_f)">
<ellipse cx="64.1124" cy="150.055" rx="4.94319" ry="3.85726" transform="rotate(13.9498 64.1124 150.055)" fill="#FEFFFF"/>
<path d="M68.4055 150.816L75.4868 122.308" stroke="#FEFFFF" stroke-width="2"/>
<ellipse cx="47.4364" cy="145.982" rx="4.94319" ry="3.85726" transform="rotate(13.9498 47.4364 145.982)" fill="#FEFFFF"/>
<path d="M51.7295 146.743L57.8421 122.189" stroke="#FEFFFF" stroke-width="2"/>
<path d="M57.3364 119.723L76.5029 121.804L75.5295 124.771L56.9545 122.489L57.3364 119.723Z" fill="#FEFFFF"/>
<path d="M56.3939 124.987L74.3032 126.99L73.0003 128.595L56.435 126.796L56.3939 124.987Z" fill="#FEFFFF"/>
</g>
<ellipse cx="42.0297" cy="29.6329" rx="4.94319" ry="3.85726" transform="rotate(-162.514 42.0297 29.6329)" fill="#E4F3FF"/>
<path d="M37.7916 28.6089L28.9653 56.6261" stroke="#E4F3FF" stroke-width="2"/>
<ellipse cx="58.4225" cy="34.7272" rx="4.94319" ry="3.85726" transform="rotate(-162.514 58.4225 34.7272)" fill="#E4F3FF"/>
<path d="M54.1845 33.7032L46.569 57.8332" stroke="#E4F3FF" stroke-width="2"/>
<path d="M46.9216 60.3259L27.9199 57.066L29.0745 54.1647L47.4734 57.5881L46.9216 60.3259Z" fill="#E4F3FF"/>
<path d="M48.1873 55.1298L30.4358 52.0257L31.8351 50.5044L48.2579 53.3217L48.1873 55.1298Z" fill="#E4F3FF"/>
<g filter="url(#filter7_f)">
<ellipse cx="42.0297" cy="29.6329" rx="4.94319" ry="3.85726" transform="rotate(-162.514 42.0297 29.6329)" fill="#E4F3FF"/>
<path d="M37.7916 28.6089L28.9653 56.6261" stroke="#E4F3FF" stroke-width="2"/>
<ellipse cx="58.4225" cy="34.7272" rx="4.94319" ry="3.85726" transform="rotate(-162.514 58.4225 34.7272)" fill="#E4F3FF"/>
<path d="M54.1845 33.7032L46.569 57.8332" stroke="#E4F3FF" stroke-width="2"/>
<path d="M46.9216 60.3259L27.9199 57.066L29.0745 54.1647L47.4734 57.5881L46.9216 60.3259Z" fill="#E4F3FF"/>
<path d="M48.1873 55.1298L30.4358 52.0257L31.8351 50.5044L48.2579 53.3217L48.1873 55.1298Z" fill="#E4F3FF"/>
</g>
</g>
<defs>
<filter id="filter0_d" x="0" y="0" width="260" height="260" filterUnits="userSpaceOnUse" color-interpolation-filters="sRGB">
<feFlood flood-opacity="0" result="BackgroundImageFix"/>
<feColorMatrix in="SourceAlpha" type="matrix" values="0 0 0 0 0 0 0 0 0 0 0 0 0 0 0 0 0 0 127 0"/>
<feOffset dy="4"/>
<feGaussianBlur stdDeviation="5"/>
<feColorMatrix type="matrix" values="0 0 0 0 0 0 0 0 0 0 0 0 0 0 0 0 0 0 0.25 0"/>
<feBlend mode="normal" in2="BackgroundImageFix" result="effect1_dropShadow"/>
<feBlend mode="normal" in="SourceGraphic" in2="effect1_dropShadow" result="shape"/>
</filter>
<filter id="filter1_f" x="211.199" y="116.171" width="34.0408" height="35.9117" filterUnits="userSpaceOnUse" color-interpolation-filters="sRGB">
<feFlood flood-opacity="0" result="BackgroundImageFix"/>
<feBlend mode="normal" in="SourceGraphic" in2="BackgroundImageFix" result="shape"/>
<feGaussianBlur stdDeviation="2" result="effect1_foregroundBlur"/>
</filter>
<filter id="filter2_f" x="219.334" y="28.7017" width="20.3615" height="34.4714" filterUnits="userSpaceOnUse" color-interpolation-filters="sRGB">
<feFlood flood-opacity="0" result="BackgroundImageFix"/>
<feBlend mode="normal" in="SourceGraphic" in2="BackgroundImageFix" result="shape"/>
<feGaussianBlur stdDeviation="2" result="effect1_foregroundBlur"/>
</filter>
<filter id="filter3_f" x="208.907" y="69.5187" width="20.294" height="40.399" filterUnits="userSpaceOnUse" color-interpolation-filters="sRGB">
<feFlood flood-opacity="0" result="BackgroundImageFix"/>
<feBlend mode="normal" in="SourceGraphic" in2="BackgroundImageFix" result="shape"/>
<feGaussianBlur stdDeviation="2" result="effect1_foregroundBlur"/>
</filter>
<filter id="filter4_f" x="18.0925" y="71.8612" width="26.6873" height="22.2985" filterUnits="userSpaceOnUse" color-interpolation-filters="sRGB">
<feFlood flood-opacity="0" result="BackgroundImageFix"/>
<feBlend mode="normal" in="SourceGraphic" in2="BackgroundImageFix" result="shape"/>
<feGaussianBlur stdDeviation="2" result="effect1_foregroundBlur"/>
</filter>
<filter id="filter5_f" x="19.4409" y="90.5423" width="31.2466" height="38.8593" filterUnits="userSpaceOnUse" color-interpolation-filters="sRGB">
<feFlood flood-opacity="0" result="BackgroundImageFix"/>
<feBlend mode="normal" in="SourceGraphic" in2="BackgroundImageFix" result="shape"/>
<feGaussianBlur stdDeviation="2" result="effect1_foregroundBlur"/>
</filter>
<filter id="filter6_f" x="37.709" y="115.723" width="42.7941" height="43.268" filterUnits="userSpaceOnUse" color-interpolation-filters="sRGB">
<feFlood flood-opacity="0" result="BackgroundImageFix"/>
<feBlend mode="normal" in="SourceGraphic" in2="BackgroundImageFix" result="shape"/>
<feGaussianBlur stdDeviation="2" result="effect1_foregroundBlur"/>
</filter>
<filter id="filter7_f" x="23.2661" y="20.4686" width="45.0303" height="48.4332" filterUnits="userSpaceOnUse" color-interpolation-filters="sRGB">
<feFlood flood-opacity="0" result="BackgroundImageFix"/>
<feBlend mode="normal" in="SourceGraphic" in2="BackgroundImageFix" result="shape"/>
<feGaussianBlur stdDeviation="2" result="effect1_foregroundBlur"/>
</filter>
</defs>
</svg>
